<?xml version="1.0" encoding="utf-8"?>
<!-- Generator: Adobe Illustrator 24.2.1, SVG Export Plug-In . SVG Version: 6.00 Build 0)  -->
<svg version="1.1" id="Layer_1" xmlns="http://www.w3.org/2000/svg" xmlns:xlink="http://www.w3.org/1999/xlink" x="0px" y="0px"
	 viewBox="0 0 1125 799" style="enable-background:new 0 0 1125 799;" xml:space="preserve">
<style type="text/css">
	.st0{fill:#333333;}
	.st1{fill:none;stroke:#4D4D4D;stroke-miterlimit:10;}
	.st2{fill:#FFFFFF;}
	.st3{font-family:'MyriadPro-Regular';}
	.st4{font-size:72px;}
	.st5{font-size:36px;}
	.st6{fill:#00FF00;}
	.st7{font-size:21px;}
	.st8{fill:#FF0000;}
	.st9{fill:#640019;}
</style>
<rect x="0.5" y="-0.5" width="1125" height="799"/>
<g>
	<g id="Group">
		<g>
			<circle class="st0" cx="107.21" cy="398.25" r="10"/>
			<circle class="st0" cx="177.21" cy="398.25" r="10"/>
			<circle class="st0" cx="247.21" cy="398.25" r="10"/>
			<circle class="st0" cx="317.21" cy="398.25" r="10"/>
			<circle class="st0" cx="387.21" cy="398.25" r="10"/>
			<circle class="st0" cx="457.21" cy="398.25" r="10"/>
			<circle class="st0" cx="527.21" cy="398.25" r="10"/>
			<circle class="st0" cx="597.21" cy="398.25" r="10"/>
			<circle class="st0" cx="667.21" cy="398.25" r="10"/>
			<circle class="st0" cx="737.21" cy="398.25" r="10"/>
			<circle class="st0" cx="807.21" cy="398.25" r="10"/>
			<circle class="st0" cx="877.21" cy="398.25" r="10"/>
			<circle class="st0" cx="947.21" cy="398.25" r="10"/>
			<circle class="st0" cx="1017.21" cy="398.25" r="10"/>
		</g>
		<g>
			<circle class="st0" cx="141.71" cy="438.88" r="10"/>
			<circle class="st0" cx="211.71" cy="438.88" r="10"/>
			<circle class="st0" cx="281.71" cy="438.88" r="10"/>
			<circle class="st0" cx="351.71" cy="438.88" r="10"/>
			<circle class="st0" cx="421.71" cy="438.88" r="10"/>
			<circle class="st0" cx="491.71" cy="438.88" r="10"/>
			<circle class="st0" cx="561.71" cy="438.88" r="10"/>
			<circle class="st0" cx="631.71" cy="438.88" r="10"/>
			<circle class="st0" cx="701.71" cy="438.88" r="10"/>
			<circle class="st0" cx="771.71" cy="438.88" r="10"/>
			<circle class="st0" cx="841.71" cy="438.88" r="10"/>
			<circle class="st0" cx="911.71" cy="438.88" r="10"/>
			<circle class="st0" cx="981.71" cy="438.88" r="10"/>
		</g>
		<g>
			<circle class="st0" cx="107" cy="479.5" r="10"/>
			<circle class="st0" cx="177" cy="479.5" r="10"/>
			<circle class="st0" cx="247" cy="479.5" r="10"/>
			<circle class="st0" cx="317" cy="479.5" r="10"/>
			<circle class="st0" cx="387" cy="479.5" r="10"/>
			<circle class="st0" cx="457" cy="479.5" r="10"/>
			<circle class="st0" cx="527" cy="479.5" r="10"/>
			<circle class="st0" cx="597" cy="479.5" r="10"/>
			<circle class="st0" cx="667" cy="479.5" r="10"/>
			<circle class="st0" cx="737" cy="479.5" r="10"/>
			<circle class="st0" cx="807" cy="479.5" r="10"/>
			<circle class="st0" cx="877" cy="479.5" r="10"/>
			<circle class="st0" cx="947" cy="479.5" r="10"/>
			<circle class="st0" cx="1017" cy="479.5" r="10"/>
		</g>
		<g>
			<circle class="st0" cx="141.5" cy="520.12" r="10"/>
			<circle class="st0" cx="211.5" cy="520.12" r="10"/>
			<circle class="st0" cx="281.5" cy="520.12" r="10"/>
			<circle class="st0" cx="351.5" cy="520.12" r="10"/>
			<circle class="st0" cx="421.5" cy="520.12" r="10"/>
			<circle class="st0" cx="491.5" cy="520.12" r="10"/>
			<circle class="st0" cx="561.5" cy="520.12" r="10"/>
			<circle class="st0" cx="631.5" cy="520.12" r="10"/>
			<circle class="st0" cx="701.5" cy="520.12" r="10"/>
			<circle class="st0" cx="771.5" cy="520.12" r="10"/>
			<circle class="st0" cx="841.5" cy="520.12" r="10"/>
			<circle class="st0" cx="911.5" cy="520.12" r="10"/>
			<circle class="st0" cx="981.5" cy="520.12" r="10"/>
		</g>
		<g>
			<circle class="st0" cx="108" cy="560.75" r="10"/>
			<circle class="st0" cx="178" cy="560.75" r="10"/>
			<circle class="st0" cx="248" cy="560.75" r="10"/>
			<circle class="st0" cx="318" cy="560.75" r="10"/>
			<circle class="st0" cx="388" cy="560.75" r="10"/>
			<circle class="st0" cx="458" cy="560.75" r="10"/>
			<circle class="st0" cx="528" cy="560.75" r="10"/>
			<circle class="st0" cx="598" cy="560.75" r="10"/>
			<circle class="st0" cx="668" cy="560.75" r="10"/>
			<circle class="st0" cx="738" cy="560.75" r="10"/>
			<circle class="st0" cx="808" cy="560.75" r="10"/>
			<circle class="st0" cx="878" cy="560.75" r="10"/>
			<circle class="st0" cx="948" cy="560.75" r="10"/>
			<circle class="st0" cx="1018" cy="560.75" r="10"/>
		</g>
		<g>
			<circle class="st0" cx="142.5" cy="601.38" r="10"/>
			<circle class="st0" cx="212.5" cy="601.38" r="10"/>
			<circle class="st0" cx="282.5" cy="601.38" r="10"/>
			<circle class="st0" cx="352.5" cy="601.38" r="10"/>
			<circle class="st0" cx="422.5" cy="601.38" r="10"/>
			<circle class="st0" cx="492.5" cy="601.38" r="10"/>
			<circle class="st0" cx="562.5" cy="601.38" r="10"/>
			<circle class="st0" cx="632.5" cy="601.38" r="10"/>
			<circle class="st0" cx="702.5" cy="601.38" r="10"/>
			<circle class="st0" cx="772.5" cy="601.38" r="10"/>
			<circle class="st0" cx="842.5" cy="601.38" r="10"/>
			<circle class="st0" cx="912.5" cy="601.38" r="10"/>
			<circle class="st0" cx="982.5" cy="601.38" r="10"/>
		</g>
		<g>
			<circle class="st0" cx="108" cy="642" r="10"/>
			<circle class="st0" cx="178" cy="642" r="10"/>
			<circle class="st0" cx="248" cy="642" r="10"/>
			<circle class="st0" cx="318" cy="642" r="10"/>
			<circle class="st0" cx="388" cy="642" r="10"/>
			<circle class="st0" cx="458" cy="642" r="10"/>
			<circle class="st0" cx="528" cy="642" r="10"/>
			<circle class="st0" cx="598" cy="642" r="10"/>
			<circle class="st0" cx="668" cy="642" r="10"/>
			<circle class="st0" cx="738" cy="642" r="10"/>
			<circle class="st0" cx="808" cy="642" r="10"/>
			<circle class="st0" cx="878" cy="642" r="10"/>
			<circle class="st0" cx="948" cy="642" r="10"/>
			<circle class="st0" cx="1018" cy="642" r="10"/>
		</g>
		<g>
			<circle class="st0" cx="142.5" cy="682.62" r="10"/>
			<circle class="st0" cx="212.5" cy="682.62" r="10"/>
			<circle class="st0" cx="282.5" cy="682.62" r="10"/>
			<circle class="st0" cx="352.5" cy="682.62" r="10"/>
			<circle class="st0" cx="422.5" cy="682.62" r="10"/>
			<circle class="st0" cx="492.5" cy="682.62" r="10"/>
			<circle class="st0" cx="562.5" cy="682.62" r="10"/>
			<circle class="st0" cx="632.5" cy="682.62" r="10"/>
			<circle class="st0" cx="702.5" cy="682.62" r="10"/>
			<circle class="st0" cx="772.5" cy="682.62" r="10"/>
			<circle class="st0" cx="842.5" cy="682.62" r="10"/>
			<circle class="st0" cx="912.5" cy="682.62" r="10"/>
			<circle class="st0" cx="982.5" cy="682.62" r="10"/>
		</g>
		<g>
			<circle class="st0" cx="107.71" cy="723.25" r="10"/>
			<circle class="st0" cx="177.71" cy="723.25" r="10"/>
			<circle class="st0" cx="247.71" cy="723.25" r="10"/>
			<circle class="st0" cx="317.71" cy="723.25" r="10"/>
			<circle class="st0" cx="387.71" cy="723.25" r="10"/>
			<circle class="st0" cx="457.71" cy="723.25" r="10"/>
			<circle class="st0" cx="527.71" cy="723.25" r="10"/>
			<circle class="st0" cx="597.71" cy="723.25" r="10"/>
			<circle class="st0" cx="667.71" cy="723.25" r="10"/>
			<circle class="st0" cx="737.71" cy="723.25" r="10"/>
			<circle class="st0" cx="807.71" cy="723.25" r="10"/>
			<circle class="st0" cx="877.71" cy="723.25" r="10"/>
			<circle class="st0" cx="947.71" cy="723.25" r="10"/>
			<circle class="st0" cx="1017.71" cy="723.25" r="10"/>
		</g>
	</g>
	<path class="st1" d="M1063,773.75H62c-6.6,0-12-5.4-12-12v-402c0-6.6,5.4-12,12-12h1001c6.6,0,12,5.4,12,12v402
		C1075,768.35,1069.6,773.75,1063,773.75z"/>
</g>
<text transform="matrix(1 0 0 1 268.7454 96.0771)" class="st2 st3 st4">SBQL-420 Spirit Box</text>
<g>
	<text transform="matrix(1 0 0 1 142.9146 178.0663)" class="st2 st3 st5">Power</text>
	<circle class="st6" cx="270.5" cy="167.5" r="12.5"/>
</g>
<g>
	<text transform="matrix(1 0 0 1 472.7851 178.0951)" class="st2 st3 st5">Scanning</text>
	<g>
		<text transform="matrix(1 0 0 1 649.6744 173.6928)" class="st2 st3 st7">Forward</text>
		<circle class="st8" cx="747.5" cy="167.53" r="12.5"/>
		<text transform="matrix(1 0 0 1 787.6744 173.6928)" class="st2 st3 st7">Reverse</text>
		<circle class="st9" cx="885.5" cy="167.53" r="12.5"/>
	</g>
	<g>
		<text transform="matrix(1 0 0 1 692.6744 236.5727)" class="st2 st3 st7">AM</text>
		<circle class="st9" cx="747.5" cy="230.41" r="12.5"/>
		<text transform="matrix(1 0 0 1 833.6744 236.5727)" class="st2 st3 st7">FM</text>
		<circle class="st8" cx="885.5" cy="230.41" r="12.5"/>
	</g>
</g>
</svg>
