<?xml version="1.0" encoding="utf-8"?>
<!-- Generator: Adobe Illustrator 24.2.1, SVG Export Plug-In . SVG Version: 6.00 Build 0)  -->
<svg version="1.1" id="Layer_1" xmlns="http://www.w3.org/2000/svg" xmlns:xlink="http://www.w3.org/1999/xlink" x="0px" y="0px"
	 viewBox="0 0 300 450" style="enable-background:new 0 0 300 450;" xml:space="preserve">
<style type="text/css">
	.st0{fill:none;stroke:#000000;stroke-miterlimit:10;}
	.st1{fill:#FFFFFF;stroke:#000000;stroke-miterlimit:10;}
	.st2{clip-path:url(#SVGID_2_);fill:#FFFFFF;stroke:#000000;stroke-miterlimit:10;}
	.st3{clip-path:url(#SVGID_4_);fill:#FFFFFF;stroke:#000000;stroke-miterlimit:10;}
	.st4{clip-path:url(#SVGID_6_);fill:#FFFFFF;stroke:#000000;stroke-miterlimit:10;}
	.st5{clip-path:url(#SVGID_8_);fill:#FFFFFF;stroke:#000000;stroke-miterlimit:10;}
	.st6{clip-path:url(#SVGID_10_);fill:#FFFFFF;stroke:#000000;stroke-miterlimit:10;}
	.st7{fill:#FFFFFF;}
	.st8{clip-path:url(#SVGID_12_);fill:#FFFFFF;stroke:#000000;stroke-miterlimit:10;}
	.st9{clip-path:url(#SVGID_14_);fill:#FFFFFF;stroke:#000000;stroke-miterlimit:10;}
	.st10{fill:none;stroke:#D4145A;stroke-width:4;stroke-miterlimit:10;}
	.st11{fill:#D4145A;}
</style>
<rect y="30" class="st0" width="300" height="420"/>
<g id="Chair">
	<rect x="62.4" y="273.01" class="st1" width="75" height="75"/>
	<g>
		<defs>
			
				<rect id="SVGID_1_" x="0.01" y="290.4" transform="matrix(-1.850879e-08 1 -1 -1.850879e-08 352.8028 268)" width="84.78" height="40"/>
		</defs>
		<clipPath id="SVGID_2_">
			<use xlink:href="#SVGID_1_"  style="overflow:visible;"/>
		</clipPath>
		<circle class="st2" cx="62.4" cy="310.51" r="37.5"/>
	</g>
</g>
<g id="Chair_1_">
	<rect x="62.4" y="167.26" class="st1" width="75" height="75"/>
	<g>
		<defs>
			
				<rect id="SVGID_3_" x="0.01" y="184.65" transform="matrix(-1.850879e-08 1 -1 -1.850879e-08 247.0514 162.2486)" width="84.78" height="40"/>
		</defs>
		<clipPath id="SVGID_4_">
			<use xlink:href="#SVGID_3_"  style="overflow:visible;"/>
		</clipPath>
		<circle class="st3" cx="62.4" cy="204.76" r="37.5"/>
	</g>
</g>
<g id="Chair_3_">
	
		<rect x="160.77" y="273.01" transform="matrix(-1 -4.489266e-11 4.489266e-11 -1 396.5493 621.019)" class="st1" width="75" height="75"/>
	<g>
		<defs>
			
				<rect id="SVGID_5_" x="213.38" y="290.4" transform="matrix(1.846387e-08 1 -1 1.846387e-08 566.1761 54.6267)" width="84.78" height="40"/>
		</defs>
		<clipPath id="SVGID_6_">
			<use xlink:href="#SVGID_5_"  style="overflow:visible;"/>
		</clipPath>
		<circle class="st4" cx="235.77" cy="310.51" r="37.5"/>
	</g>
</g>
<g id="Chair_2_">
	
		<rect x="160.77" y="167.26" transform="matrix(-1 -4.486867e-11 4.486867e-11 -1 396.5493 409.5162)" class="st1" width="75" height="75"/>
	<g>
		<defs>
			
				<rect id="SVGID_7_" x="213.38" y="184.65" transform="matrix(1.846387e-08 1 -1 1.846387e-08 460.4247 -51.1247)" width="84.78" height="40"/>
		</defs>
		<clipPath id="SVGID_8_">
			<use xlink:href="#SVGID_7_"  style="overflow:visible;"/>
		</clipPath>
		<circle class="st5" cx="235.77" cy="204.76" r="37.5"/>
	</g>
</g>
<g id="Chair_4_">
	
		<rect x="112.39" y="87.26" transform="matrix(-1.347022e-10 1 -1 -1.347022e-10 274.65 -25.1338)" class="st1" width="75" height="75"/>
	<g>
		<defs>
			
				<rect id="SVGID_9_" x="107.61" y="47.26" transform="matrix(-1 -1.864347e-08 1.864347e-08 -1 300 134.5162)" width="84.78" height="40"/>
		</defs>
		<clipPath id="SVGID_10_">
			<use xlink:href="#SVGID_9_"  style="overflow:visible;"/>
		</clipPath>
		<circle class="st6" cx="149.89" cy="87.26" r="37.5"/>
	</g>
</g>
<g id="Table">
	<rect x="75" y="172.74" class="st7" width="150" height="150"/>
	<g>
		<defs>
			<rect id="SVGID_11_" x="70" y="322.74" width="160" height="80"/>
		</defs>
		<clipPath id="SVGID_12_">
			<use xlink:href="#SVGID_11_"  style="overflow:visible;"/>
		</clipPath>
		<circle class="st8" cx="150" cy="322.74" r="75"/>
	</g>
	<g>
		<defs>
			
				<rect id="SVGID_13_" x="70" y="92.74" transform="matrix(-1 -1.224647e-16 1.224647e-16 -1 300 265.4839)" width="160" height="80"/>
		</defs>
		<clipPath id="SVGID_14_">
			<use xlink:href="#SVGID_13_"  style="overflow:visible;"/>
		</clipPath>
		<circle class="st9" cx="150" cy="172.74" r="75"/>
	</g>
	<line class="st0" x1="75" y1="322.74" x2="75" y2="172.74"/>
	<line class="st0" x1="225" y1="322.74" x2="225" y2="172.74"/>
</g>
<circle id="Plate" class="st1" cx="109.06" cy="204.65" r="25"/>
<circle id="Plate_1_" class="st1" cx="109.06" cy="310.4" r="25"/>
<circle id="Plate_3_" class="st1" cx="190.53" cy="204.65" r="25"/>
<circle id="Plate_2_" class="st1" cx="190.53" cy="310.4" r="25"/>
<circle id="Plate_4_" class="st1" cx="150" cy="132.74" r="25"/>
<g id="Doors">
	<line class="st0" x1="70" y1="450" x2="147.27" y2="429.29"/>
	<line class="st0" x1="151.36" y1="429.29" x2="228.64" y2="450"/>
</g>
<g id="Doors_1_">
	<line class="st0" x1="300" y1="340.95" x2="279.29" y2="263.68"/>
	<line class="st0" x1="279.29" y1="259.59" x2="300" y2="182.32"/>
</g>
<g>
	<g>
		<polygon class="st0" points="182.57,15 117.73,15 112.39,0 187.39,0 		"/>
		<polygon class="st0" points="177.75,30 123.07,30 117.73,15 182.57,15 		"/>
	</g>
</g>
<g>
	<g>
		<line class="st10" x1="65.18" y1="124.76" x2="108.12" y2="36.7"/>
		<g>
			<path class="st11" d="M118.7,15c-1.19,12.06-0.9,27.88,2.11,39.07l-14.08-14.52l-20.11-2.15C97.3,32.88,109.94,23.36,118.7,15z"
				/>
		</g>
	</g>
</g>
</svg>
